# xmcd
#
# Track frame offsets: 
#        150
#        13409
#        26631
#        41041
#        54789
#        69051
#        84008
#        97773
#        110668
#        125047
#        139531
#        153399
#        168192
#        182911
#        195936
#        210359
#        224840
#        239375
#        253551
#        267422
#
# Disc length: 3753 seconds
#
# Revision: 1
# Processed by: cddbd v1.5.2PL0 Copyright (c) Steve Scherf et al.
# Submitted via: ExactAudioCopyFreeDBPlugin 1.0
#
DISCID=0d0ea714
DTITLE=Big Maceo, Blind Willie Mc Tell - ABC Of The Blues - Vol. 31 - 
DTITLE=Big Maceo, Mc Tell
DYEAR=2010
DGENRE=Blues
TTITLE0=Big Maceo - Worried Life Blues
TTITLE1=Big Maceo - County Jail Blues
TTITLE2=Big Maceo - Can't You Read
TTITLE3=Big Maceo - Tuff Luck Blues
TTITLE4=Big Maceo - It's All Up To You
TTITLE5=Big Maceo - Poor Kelly Blues
TTITLE6=Big Maceo - My Last Go Round
TTITLE7=Big Maceo - I Got The Blues
TTITLE8=Big Maceo - Ramblin' Mind Blues
TTITLE9=Big Maceo - Why Should I Hang Around
TTITLE10=Blind Willie McTell - Georgia Rag
TTITLE11=Blind Willie McTell - Rough Alley Blues
TTITLE12=Blind Willie McTell - Low Rider's Blues
TTITLE13=Blind Willie McTell - Painful Blues
TTITLE14=Blind Willie McTell - Experience Blues
TTITLE15=Blind Willie McTell - Low Down Blues
TTITLE16=Blind Willie McTell - Lonesome Day Blues
TTITLE17=Blind Willie McTell - Mama, Let Me Scoop For You
TTITLE18=Blind Willie McTell - Rollin' Mama Blues
TTITLE19=Blind Willie McTell - Searching The Desert For The Blues
EXTD=
EXTT0=
EXTT1=
EXTT2=
EXTT3=
EXTT4=
EXTT5=
EXTT6=
EXTT7=
EXTT8=
EXTT9=
EXTT10=
EXTT11=
EXTT12=
EXTT13=
EXTT14=
EXTT15=
EXTT16=
EXTT17=
EXTT18=
EXTT19=
PLAYORDER=
